<svg width="30" height="27" viewBox="0 0 30 27" fill="none" xmlns="http://www.w3.org/2000/svg">
<path fill-rule="evenodd" clip-rule="evenodd" d="M1.93555 9.95875C-0.415665 7.15856 0.987989 2.98194 4.42815 2.54514L23.781 0.0854552C27.4875 -0.386821 30.3298 3.816 28.5141 7.08414L19.0403 24.1517C17.3565 27.1856 12.9616 26.9366 11.2368 23.7122L8.03791 17.7333L17.8345 11.0976C18.1546 10.8808 18.3695 10.5369 18.4321 10.1416C18.4947 9.74621 18.3999 9.33177 18.1683 8.98943C17.9368 8.64709 17.5876 8.40489 17.1976 8.31611C16.8076 8.22733 16.4087 8.29925 16.0886 8.51603L6.29323 15.1509L1.93675 9.95794L1.93555 9.95875Z" fill="white"/>
</svg>
