<svg width="8" height="23" viewBox="0 0 8 23" fill="none" xmlns="http://www.w3.org/2000/svg">
<path d="M0.888184 11.4854C0.888184 12.2518 1.19266 12.9869 1.73463 13.5289C2.27661 14.0709 3.01168 14.3753 3.77814 14.3753C4.54461 14.3753 5.27968 14.0709 5.82165 13.5289C6.36362 12.9869 6.6681 12.2518 6.6681 11.4854C6.6681 10.7189 6.36362 9.98383 5.82165 9.44186C5.27968 8.89989 4.54461 8.59541 3.77814 8.59541C3.01168 8.59541 2.27661 8.89989 1.73463 9.44186C1.19266 9.98383 0.888184 10.7189 0.888184 11.4854ZM0.888184 4.3155C0.888184 5.08196 1.19266 5.81703 1.73463 6.359C2.27661 6.90098 3.01168 7.20545 3.77814 7.20545C4.54461 7.20545 5.27968 6.90098 5.82165 6.359C6.36362 5.81703 6.6681 5.08196 6.6681 4.3155C6.6681 3.54903 6.36362 2.81396 5.82165 2.27199C5.27968 1.73001 4.54461 1.42554 3.77814 1.42554C3.01168 1.42554 2.27661 1.73001 1.73463 2.27199C1.19266 2.81396 0.888184 3.54903 0.888184 4.3155ZM0.888184 18.6552C0.888184 19.4217 1.19266 20.1568 1.73463 20.6988C2.27661 21.2407 3.01168 21.5452 3.77814 21.5452C4.54461 21.5452 5.27968 21.2407 5.82165 20.6988C6.36362 20.1568 6.6681 19.4217 6.6681 18.6552C6.6681 17.8888 6.36362 17.1537 5.82165 16.6117C5.27968 16.0698 4.54461 15.7653 3.77814 15.7653C3.01168 15.7653 2.27661 16.0698 1.73463 16.6117C1.19266 17.1537 0.888184 17.8888 0.888184 18.6552Z" fill="black" stroke="#E9E9E9"/>
</svg>
