<svg width="6" height="21" viewBox="0 0 6 21" fill="none" xmlns="http://www.w3.org/2000/svg">
<path d="M0.388184 10.4854C0.388184 11.1192 0.639982 11.7271 1.08819 12.1753C1.53639 12.6235 2.14429 12.8753 2.77814 12.8753C3.412 12.8753 4.01989 12.6235 4.4681 12.1753C4.9163 11.7271 5.1681 11.1192 5.1681 10.4854C5.1681 9.85151 4.9163 9.24362 4.4681 8.79541C4.01989 8.34721 3.412 8.09541 2.77814 8.09541C2.14429 8.09541 1.53639 8.34721 1.08819 8.79541C0.639982 9.24362 0.388184 9.85151 0.388184 10.4854ZM0.388184 3.3155C0.388184 3.94935 0.639982 4.55725 1.08819 5.00545C1.53639 5.45365 2.14429 5.70545 2.77814 5.70545C3.412 5.70545 4.01989 5.45365 4.4681 5.00545C4.9163 4.55725 5.1681 3.94935 5.1681 3.3155C5.1681 2.68164 4.9163 2.07374 4.4681 1.62554C4.01989 1.17734 3.412 0.925537 2.77814 0.925537C2.14429 0.925537 1.53639 1.17734 1.08819 1.62554C0.639982 2.07374 0.388184 2.68164 0.388184 3.3155ZM0.388184 17.6552C0.388184 18.2891 0.639982 18.897 1.08819 19.3452C1.53639 19.7934 2.14429 20.0452 2.77814 20.0452C3.412 20.0452 4.01989 19.7934 4.4681 19.3452C4.9163 18.897 5.1681 18.2891 5.1681 17.6552C5.1681 17.0214 4.9163 16.4135 4.4681 15.9653C4.01989 15.5171 3.412 15.2653 2.77814 15.2653C2.14429 15.2653 1.53639 15.5171 1.08819 15.9653C0.639982 16.4135 0.388184 17.0214 0.388184 17.6552Z" fill="white"/>
</svg>
