<svg width="27" height="25" viewBox="0 0 27 25" fill="none" xmlns="http://www.w3.org/2000/svg">
<path d="M13.5 0C5.25 0 0 5.13584 0 11.429C0 17.7222 5.25 22.8642 13.5 22.8642C14.925 22.8642 16.875 22.6339 18 22.2502L22.35 24.7828C23.325 25.3968 24.6 24.6293 24.6 23.4781V17.9524C24.675 17.8757 24.675 17.7989 24.75 17.7989C26.25 15.4966 27 14.3454 27 11.429C27 5.13584 21.75 0 13.5 0ZM23.625 13.6608C23.1753 14.5598 22.6744 15.4311 22.125 16.2702C21.825 16.8074 21.6 17.3446 21.6 17.9586V20.8749L19.5 19.5641C19.1438 19.3405 18.7422 19.2035 18.3261 19.1636C17.9101 19.1237 17.4906 19.1819 17.1 19.3339C16.425 19.5641 14.85 19.7176 13.575 19.7176C6.525 19.7176 3.075 15.5733 3.075 11.3523C3 7.20798 6.45 3.0637 13.5 3.0637C20.55 3.0637 24 7.20798 24 11.429C24 12.5802 23.85 13.1174 23.625 13.6546V13.6608ZM11.25 11.5119C11.25 11.9673 11.382 12.4124 11.6292 12.791C11.8764 13.1697 12.2278 13.4648 12.639 13.639C13.0501 13.8133 13.5025 13.8589 13.939 13.77C14.3754 13.6812 14.7763 13.4619 15.091 13.1399C15.4057 12.8179 15.6199 12.4077 15.7068 11.9611C15.7936 11.5145 15.749 11.0515 15.5787 10.6308C15.4084 10.2101 15.12 9.85053 14.75 9.59754C14.38 9.34455 13.945 9.20952 13.5 9.20952C12.9033 9.20952 12.331 9.45209 11.909 9.88387C11.4871 10.3157 11.25 10.9013 11.25 11.5119ZM5.25 11.5119C5.25 12.1225 5.48705 12.7081 5.90901 13.1399C6.33097 13.5717 6.90326 13.8143 7.5 13.8143C8.09674 13.8143 8.66903 13.5717 9.09099 13.1399C9.51295 12.7081 9.75 12.1225 9.75 11.5119C9.75 10.9013 9.51295 10.3157 9.09099 9.88387C8.66903 9.45209 8.09674 9.20952 7.5 9.20952C6.90326 9.20952 6.33097 9.45209 5.90901 9.88387C5.48705 10.3157 5.25 10.9013 5.25 11.5119ZM17.25 11.5119C17.25 12.1225 17.4871 12.7081 17.909 13.1399C18.331 13.5717 18.9033 13.8143 19.5 13.8143C20.0967 13.8143 20.669 13.5717 21.091 13.1399C21.5129 12.7081 21.75 12.1225 21.75 11.5119C21.75 10.9013 21.5129 10.3157 21.091 9.88387C20.669 9.45209 20.0967 9.20952 19.5 9.20952C18.9033 9.20952 18.331 9.45209 17.909 9.88387C17.4871 10.3157 17.25 10.9013 17.25 11.5119Z" fill="white" fill-opacity="0.6"/>
</svg>
