<svg width="22" height="23" viewBox="0 0 22 23" fill="none" xmlns="http://www.w3.org/2000/svg">
<path d="M15.8968 11.7007C16.8482 10.7353 17.493 9.51011 17.7502 8.17926C18.0073 6.84841 17.8653 5.47124 17.342 4.22085C16.8187 2.97047 15.9375 1.90267 14.8091 1.15168C13.6807 0.40068 12.3555 0 11 0C9.64453 0 8.31931 0.40068 7.19091 1.15168C6.0625 1.90267 5.18128 2.97047 4.65799 4.22085C4.1347 5.47124 3.9927 6.84841 4.24985 8.17926C4.507 9.51011 5.15181 10.7353 6.10324 11.7007C4.30731 12.4067 2.76508 13.6362 1.67673 15.2297C0.588392 16.8233 0.0042035 18.7071 2.21035e-07 20.6368C-0.000102204 20.8174 0.0353933 20.9963 0.104457 21.1632C0.173521 21.33 0.274799 21.4816 0.4025 21.6093C0.530201 21.737 0.68182 21.8383 0.848689 21.9074C1.01556 21.9764 1.1944 22.0119 1.375 22.0118H20.625C20.8056 22.0119 20.9844 21.9764 21.1513 21.9074C21.3182 21.8383 21.4698 21.737 21.5975 21.6093C21.7252 21.4816 21.8265 21.33 21.8955 21.1632C21.9646 20.9963 22.0001 20.8174 22 20.6368C21.9958 18.7071 21.4116 16.8233 20.3233 15.2297C19.2349 13.6362 17.6927 12.4067 15.8968 11.7007ZM11 2.76184C11.8158 2.76184 12.6134 3.00377 13.2917 3.45703C13.9701 3.91029 14.4988 4.55453 14.811 5.30827C15.1232 6.06202 15.2049 6.89142 15.0457 7.69159C14.8866 8.49176 14.4937 9.22677 13.9168 9.80366C13.3399 10.3805 12.6049 10.7734 11.8047 10.9326C11.0046 11.0917 10.1752 11.0101 9.42143 10.6978C8.66769 10.3856 8.02345 9.85692 7.57019 9.17857C7.11693 8.50022 6.875 7.70269 6.875 6.88684C6.87621 5.7932 7.3112 4.74469 8.08452 3.97137C8.85785 3.19804 9.90635 2.76305 11 2.76184ZM2.88697 19.2618C3.20646 17.7101 4.05099 16.3159 5.27831 15.3141C6.50563 14.3123 8.04072 13.7641 9.625 13.7618H12.375C13.9593 13.7641 15.4944 14.3123 16.7217 15.3141C17.949 16.3159 18.7935 17.7101 19.113 19.2618H2.88697Z" fill="white" fill-opacity="0.6"/>
</svg>
