<svg version="1.2" xmlns="http://www.w3.org/2000/svg" viewBox="0 0 500 500" width="500" height="500">
	<title>rock-svg</title>
	<style>
		.s0 { fill: #302e2f } 
		.s1 { fill: #fefefe } 
		.s2 { fill: #efefef } 
		.s3 { fill: #343233 } 
	</style>
	<path class="s0" d="m413.1 343.3c0.2-5.4 0.6-10.8 0.4-16.2-0.2-8-0.6-15.4 8.5-20.1 4.7-2.4 6.2-8.5 6.2-14.3 0-6.5 0.3-13 0-19.5-0.1-7.6 2.9-12.8 7.4-19.5 7.6-11.3 16-20.6 25.3-30.3 9.6-10 5.2-43.1-5.2-53.8-20.5-21.2-41.7-42-62.5-62.8-6.7-6.7-15.2-8.8-24.7-8.8-36 0.2-72.1-0.3-108.1 0.2-7.8 0-13.6-2.2-19-7.8-12.8-13.2-26-26-38.8-39.2-7.6-7.6-16.2-11.5-27.1-11.3-11.5 0.3-23.1 0.5-34.6 0-10.9-0.4-19.5 3.7-27.1 11.3-23.4 23.4-46.8 47-70.4 70.4-7.6 7.5-11.2 16.4-11 27 0 5.9 0.7 11.7 0 17.4-2.4 20.5 2.2 38.5 19.1 52.1 1.3 5.2 4.5 8.9 8.2 12.6l32.9 32.9c6.1 5.9 9.3 12.8 9.1 21.3-0.4 13.2 5.2 23.3 14.3 32.4q53.6 53.3 107 107.2c12.2 12.4 25.4 15.8 42.7 9.8 36.4-13 73-24.9 109.8-36.6 16.6-5.5 28.1-14.5 28.8-33.2 0.2-3.9 2.1-6.7 4.5-9.5 2.8-3.4 5.8-6.7 4.3-11.7z"/>
	<path class="s1" d="m244 418.7c4.1 3.5 8.4 1.1 12.3-0.2q59.4-19.8 118.7-39.7c9.7-3.2 13.2-10.1 10.6-19.9-1.8-6.3-5.9-2.4-8.5-1.5-26 8.5-52 17.1-77.7 25.8l-19.5 6.5c-3.3 1.1-7.6 3.7-9.3-0.9-1.7-5 3.7-5.2 6.7-6.3 26-8.6 51.8-17.3 77.7-26 11.3-3.7 22.6-7.8 33.8-11 8.3-2.4 12.2-6.5 11.3-15.4-0.7-5.6-0.2-11.5-0.2-18.8-9.8 3.2-18.9 5.8-28 8.9-29.4 9.7-58.7 19.7-87.9 29.4-2.4 0.9-4.8 1.8-7.2 2.4-2.3 0.6-5.4 1.3-6.5-1.7-1.3-3 1.3-4.6 3.9-5.4 2-0.7 4.2-1.3 6.1-2.2 41-13.7 81.9-27.5 122.8-40.7 8.6-2.8 12.8-6.9 11.7-16.2q-0.3-2.5-0.4-4.9-0.1-2.4-0.1-4.9 0-2.4 0.1-4.9 0.1-2.4 0.4-4.8c0.6-7.6-1.8-8.3-8.5-5.9-40.5 13.9-81.2 27.3-121.9 40.7q-0.4 0.2-0.7 0.4-0.4 0.1-0.8 0.2-0.3 0.1-0.7 0.2-0.4 0.1-0.8 0.1c-3.9 0.6-9.1 5.4-11-0.7-1.7-5.2 4.8-5.2 8.2-6.2l89-29.9c17.1-5.6 34-11.7 51.1-16.9 7.4-2.2 11-6.1 10.4-13.9q0-0.4 0-0.8-0.1-0.4-0.1-0.8 0-0.4 0.1-0.8 0-0.4 0-0.8c0.2-43.8-2.1-48.3-35.9-75.8-5-4.1-9.8-3.3-15.2-1.3-22.7 7.6-45.7 15.2-68.6 22.7-3.5 1.1-8.5 5-10-0.8-1.6-5.2 4.5-5.2 8-6.5 23.1-7.8 46.5-15.4 69.5-23.4 9.3-3.3 16.6-1.5 23.4 5.6 5.6 6.1 11.3 12.3 17.8 17.5 14.5 11.5 21.2 25.8 18.6 44.4-0.4 2.6-2.2 7.6 2.2 7.8 4.3 0.2 10.6-1.3 11-6.9 0.8-14.1 4.3-28.4-8.5-40.3-18.4-17.1-36.2-35.3-53.7-53.5-6.5-6.7-13.4-9.7-23-9.5-46.6 0.4-93.1 0.2-139.7 0.2h-7.6c-2.8 0-5.6-0.6-5.6-3.4-0.2-3.9 3-4.4 6.1-4.4h14.8c-15.6-16.2-30.3-31.6-45.5-46.8-3-3-7.8-3.2-12.1-3.4-43.5-1.3-43.5-1.3-74.3 29.2-3.9 3.9-7.4 7.8-11 11.7-3.7 6.5 1.3 10.2 4.8 13.9 11.9 12.5 24.4 24.7 36.6 36.8 32.7 32.2 64.7 64.7 97 96.6 8 7.8 11.7 16.2 11.7 27.7-0.5 43.7-0.3 87.2-0.3 131 0 6.5 0.2 13 4.4 18.4z"/>
	<path class="s2" d="m244 418.7c0-51.1-0.3-102.2 0.2-153.5 0-9.8-2.8-17.2-9.8-23.9q-68.2-67.5-136-136c-3.2-3.2-7.5-5.8-8-11-12.7 12.6-25.7 25.2-38.5 37.9q-0.3 0.3-0.6 0.6-0.3 0.3-0.6 0.6-0.3 0.3-0.5 0.6-0.3 0.3-0.5 0.6c-5.8 8-6.5 55 0.2 61.9 19.3 20 39.2 39 59.2 58.7 2.3-5 0.6-9.5 1.3-14 0.2-2.9 0-6.3 4.1-6.3 4.1 0 3.9 3.4 3.9 6.3 0 14 0.2 28.1 0 42.2q-0.2 2.6 0.2 5.1 0.5 2.5 1.4 4.9 1 2.4 2.4 4.5 1.5 2.1 3.3 3.9c37.9 37.7 75.6 75.6 113.5 113.3q0.5 0.5 1.1 1 0.5 0.5 1.1 1 0.6 0.4 1.3 0.8 0.6 0.4 1.3 0.8z"/>
	<path class="s3" d="m269.9 173.6c0 3.2 0.5 6.5 0 9.7-4.3 23.8 12.6 36 27.3 48.9 4.1 3.7 10 3.7 15.4 2 22.5-7.6 45-14.9 67.4-22.5 3-1.1 7.1-1.6 5.8-5.9-1.5-4.3-5-2.4-8.2-1.3-21 7.2-42.2 13.9-63.2 21.2-7.4 2.6-12.4 0.9-18.5-4.1-14.5-11.7-20.7-25.7-18.4-44.2 1.1-8.8 0.3-18 0.3-27 0-3.3 0.2-7.4-4.4-7.2-3.7 0.2-3.4 3.9-3.4 7q-0.1 11.3-0.1 23.4z"/>
</svg>