<svg width="12" height="13" viewBox="0 0 12 13" fill="none" xmlns="http://www.w3.org/2000/svg">
<path d="M11.8179 6.97949C11.8379 6.55926 11.615 6.16536 11.2386 5.95036L2.46653 0.931192C2.07384 0.700306 1.60121 0.712098 1.21565 0.948468C0.823038 1.1888 0.605941 1.78375 0.698432 2.22139L1.4172 5.61853C1.491 5.96688 1.80336 6.22045 2.17234 6.23067L7.14459 6.37399C7.39935 6.37716 7.59902 6.58291 7.58552 6.82833C7.57648 7.06972 7.36634 7.25948 7.11157 7.25631L2.13472 7.10911C1.76577 7.09806 1.43516 7.33226 1.33548 7.67561L0.356238 11.0322C0.237718 11.4287 0.343601 11.8317 0.626461 12.1232C0.659739 12.1575 0.697177 12.1961 0.734926 12.2263C1.10409 12.5203 1.59897 12.572 2.02998 12.3678L11.1546 7.96447C11.546 7.77993 11.7978 7.39971 11.8179 6.97949Z" fill="#14181D"/>
</svg>
