<svg width="20" height="18" viewBox="0 0 20 18" fill="none" xmlns="http://www.w3.org/2000/svg">
<path d="M8.75 14.7375C7.9212 14.7375 7.12634 14.4083 6.54029 13.8222C5.95424 13.2362 5.625 12.4413 5.625 11.6125V10.475C5.62502 10.3665 5.65326 10.2599 5.70696 10.1657C5.76066 10.0715 5.83795 9.99281 5.93125 9.9375L8.2 8.575C8.34099 8.51127 8.50061 8.50212 8.64797 8.54929C8.79533 8.59647 8.91995 8.69663 8.99771 8.83039C9.07548 8.96415 9.10087 9.12201 9.06897 9.27341C9.03706 9.42481 8.95013 9.55899 8.825 9.65L6.875 10.8312V11.6125C6.875 12.1098 7.07254 12.5867 7.42417 12.9383C7.77581 13.29 8.25272 13.4875 8.75 13.4875C8.91576 13.4875 9.07473 13.5533 9.19194 13.6706C9.30915 13.7878 9.375 13.9467 9.375 14.1125C9.375 14.2783 9.30915 14.4372 9.19194 14.5544C9.07473 14.6716 8.91576 14.7375 8.75 14.7375Z" fill="white"/>
<path d="M4.375 14.7375H3.75C3.33962 14.7375 2.93326 14.6567 2.55411 14.4996C2.17497 14.3426 1.83047 14.1124 1.54029 13.8222C0.95424 13.2362 0.625 12.4413 0.625 11.6125V10.475C0.625019 10.3665 0.653265 10.2599 0.70696 10.1657C0.760655 10.0715 0.837952 9.99281 0.93125 9.9375L3.2 8.575C3.34099 8.51127 3.50061 8.50212 3.64797 8.54929C3.79533 8.59647 3.91995 8.69663 3.99771 8.83039C4.07548 8.96415 4.10087 9.12201 4.06897 9.27341C4.03706 9.42481 3.95013 9.55899 3.825 9.65L1.875 10.8312V11.6125C1.875 12.1098 2.07254 12.5867 2.42417 12.9383C2.77581 13.29 3.25272 13.4875 3.75 13.4875H4.375C4.54076 13.4875 4.69973 13.5533 4.81694 13.6706C4.93415 13.7878 5 13.9467 5 14.1125C5 14.2783 4.93415 14.4372 4.81694 14.5544C4.69973 14.6716 4.54076 14.7375 4.375 14.7375Z" fill="white"/>
<path d="M6.25 8.375C5.25544 8.375 4.30161 7.97991 3.59835 7.27665C2.89509 6.57339 2.5 5.61956 2.5 4.625C2.5 3.63044 2.89509 2.67661 3.59835 1.97335C4.30161 1.27009 5.25544 0.875 6.25 0.875C6.41576 0.875 6.57473 0.940848 6.69194 1.05806C6.80915 1.17527 6.875 1.33424 6.875 1.5C6.875 1.66576 6.80915 1.82473 6.69194 1.94194C6.57473 2.05915 6.41576 2.125 6.25 2.125C5.58696 2.125 4.95107 2.38839 4.48223 2.85723C4.01339 3.32607 3.75 3.96196 3.75 4.625C3.75 5.28804 4.01339 5.92393 4.48223 6.39277C4.95107 6.86161 5.58696 7.125 6.25 7.125C6.41576 7.125 6.57473 7.19085 6.69194 7.30806C6.80915 7.42527 6.875 7.58424 6.875 7.75C6.875 7.91576 6.80915 8.07473 6.69194 8.19194C6.57473 8.30915 6.41576 8.375 6.25 8.375Z" fill="white"/>
<path d="M11.25 8.375C10.5083 8.375 9.7833 8.15507 9.16661 7.74301C8.54993 7.33096 8.06928 6.74529 7.78545 6.06006C7.50162 5.37484 7.42736 4.62084 7.57206 3.89341C7.71675 3.16598 8.0739 2.4978 8.59835 1.97335C9.1228 1.4489 9.79098 1.09175 10.5184 0.947057C11.2458 0.802362 11.9998 0.876625 12.6851 1.16045C13.3703 1.44428 13.956 1.92493 14.368 2.54161C14.7801 3.1583 15 3.88332 15 4.625C15 5.61956 14.6049 6.57339 13.9017 7.27665C13.1984 7.97991 12.2446 8.375 11.25 8.375ZM11.25 2.125C10.7555 2.125 10.2722 2.27162 9.86108 2.54633C9.44995 2.82103 9.12952 3.21148 8.9403 3.66829C8.75108 4.12511 8.70158 4.62777 8.79804 5.11273C8.8945 5.59768 9.1326 6.04314 9.48223 6.39277C9.83187 6.7424 10.2773 6.9805 10.7623 7.07697C11.2472 7.17343 11.7499 7.12392 12.2067 6.9347C12.6635 6.74548 13.054 6.42505 13.3287 6.01393C13.6034 5.6028 13.75 5.11945 13.75 4.625C13.75 3.96196 13.4866 3.32608 13.0178 2.85723C12.5489 2.38839 11.913 2.125 11.25 2.125Z" fill="white"/>
<path d="M15 17.125C14.1347 17.125 13.2888 16.8684 12.5694 16.3877C11.8499 15.907 11.2892 15.2237 10.958 14.4242C10.6269 13.6248 10.5403 12.7451 10.7091 11.8965C10.8779 11.0478 11.2946 10.2683 11.9064 9.65641C12.5183 9.04456 13.2978 8.62788 14.1465 8.45907C14.9951 8.29026 15.8748 8.3769 16.6742 8.70803C17.4737 9.03916 18.157 9.59992 18.6377 10.3194C19.1184 11.0388 19.375 11.8847 19.375 12.75C19.375 13.9103 18.9141 15.0231 18.0936 15.8436C17.2731 16.6641 16.1603 17.125 15 17.125ZM15 9.625C14.3819 9.625 13.7777 9.80828 13.2638 10.1517C12.7499 10.495 12.3494 10.9831 12.1129 11.5541C11.8764 12.1251 11.8145 12.7535 11.935 13.3597C12.0556 13.9659 12.3533 14.5227 12.7903 14.9597C13.2273 15.3967 13.7842 15.6944 14.3903 15.815C14.9965 15.9355 15.6249 15.8736 16.1959 15.6371C16.7669 15.4006 17.255 15.0001 17.5983 14.4862C17.9417 13.9723 18.125 13.3681 18.125 12.75C18.125 11.9212 17.7958 11.1263 17.2097 10.5403C16.6237 9.95424 15.8288 9.625 15 9.625Z" fill="white"/>
<path d="M16.875 12.125H13.125V13.375H16.875V12.125Z" fill="white"/>
<path d="M15.625 10.875H14.375V14.625H15.625V10.875Z" fill="white"/>
</svg>
