<svg version="1.2" xmlns="http://www.w3.org/2000/svg" viewBox="0 0 500 500" width="500" height="500">
	<title>paper-svg</title>
	<style>
		.s0 { fill: #302e2f } 
		.s1 { fill: #fefefe } 
		.s2 { fill: #efefef } 
		.s3 { fill: #eeeeee } 
	</style>
	<path class="s0" d="m355.6 183.1c8-22.4 4.5-42.6-10.7-59.7-13.7-15.5-27.4-30.8-40.8-46.3-6.4-7.5-13.7-10.9-23-10.7-26.7 0.2-53.5 0-80.2 0.2-6.8 0-11.8-2-16.6-7.7-24.4-28.8-21.8-25.4-52.1-14.1-28.1 10.5-56.1 21.2-84.3 31.9-11.6 4.4-15.3 9.8-15 23.5 0.4 15.8-2 31.5 2 47q0.7 2.5 1.6 4.8 0.9 2.4 2.2 4.6 1.2 2.2 2.7 4.3 1.6 2 3.3 3.8c12.3 13.5 24.5 27.4 36.6 41.3 4.6 5.3 7.8 11.1 7.3 18.6-0.5 8.8 4.6 14.9 7.7 22 1 5 3.7 8.8 7 12.5q66.6 75 133 150.1c13.9 15.7 25 17.7 42.4 6.4 6.1-3.8 9.6-3 13.5 2.4 0.8 1-0.1-0.2 0.6 0.9 19.4 21.5 36.7 22.5 57.7 2.8 3.6-3.5 5.9-3.7 9.1 0 9.3 10.9 20.2 11.1 32.1 6.4 11.2-4.4 23-7.2 29.6-20.3 1.3-2.6 3.9-2.6 6.3-3 8-1.4 15.3-4.9 23-7.7q2.1-0.7 4-1.9 1.9-1.1 3.5-2.7 1.6-1.6 2.8-3.5 1.2-1.9 2-4c8-20.5 4.4-42.5-9.3-58l-93.8-106c-2.7-3-5-6.4-7.5-9.6-1.6-6.9-6.6-10.7-11.2-15.6 6-2.7 12.8-4.3 14.5-12.7z"/>
	<path class="s1" d="m100.9 179.4l0.5 0.4h0.7c3 7.9 1.4 16.4 1.3 24.4-0.2 9.1 2.5 15.9 8.2 22.2 23.7 26.4 46.9 53.4 70.6 79.6 21.7 24 41.5 49.7 63.3 73.7 4.1 4.6 7.1 9.7 7.1 16.7q0 1.3 0.1 2.5 0.2 1.2 0.7 2.3 0.4 1.2 1 2.3 0.6 1 1.4 2c7.7 3.2 13.9-1.2 18.9-6.5 3.9-4.2 0.7-21.3-4.1-27-15.9-18.1-31.9-36-47.8-54l-4.4-5c-1.5-1.8-2.9-3.8-0.9-6 1.9-2.1 3.7-0.6 5.3 1 1.6 1.6 3.2 3 4.7 4.5 3.3 2.6 6.7 6 10.7 7 14 3.7 23.8 14.1 33.5 25.4 9.6 11.3 19.6 22.4 29.6 33.5 7.5 8.2 12.6 17.7 11.9 30-0.2 4 0.6 8 3.2 11 8 1.3 14.7-4.4 21.8-6.6 1.1-0.2 2-1.6 2.5-2.8 3.4-6.7 0-31-5.4-36.9l-64.9-73.3c-1.4-1.6-2.8-3.5-4.2-5-1.6-1.8-2.9-4-0.9-6 1.7-2 3.7-0.6 5.3 1 1.4 1.6 3.2 3 4.7 4.4q2.1 1.5 4.3 2.9 2.2 1.4 4.5 2.7 2.3 1.2 4.7 2.3 2.4 1.1 4.8 2c11.4 4.5 19.6 13.7 27.1 23.6 13.4 17.5 28.2 33.5 42.6 49.8 5.9 6.4 9.5 13.5 8.8 23q-0.2 1.9-0.1 3.7 0.1 1.9 0.6 3.7 0.4 1.9 1.1 3.6 0.8 1.7 1.8 3.3c10.5 0.8 19.2-5.6 28.7-9.1 1.2-0.4 2.1-2.2 2.6-3.8 3.4-8.9-0.3-29.6-6.6-36.5l-76.1-86-3.7-4.2c-1.6-2-3.8-4.2-1.5-6.9 1.8-2 3.8-0.6 5.4 1.3 0.9 0.8 1.8 1.6 2.8 2.4 6.3 5 12.7 9.6 20.4 12.1 7 2.2 12.4 7.2 17.6 13.1 14.4 16.3 28.7 32.8 43.3 49 7.7 8.2 12.5 17.3 11.8 30-0.4 6-0.2 13.9 9.1 11 2.3-0.6 4.8-1 6.8-2.2 6.2-3.6 16.9-1.4 18.1-11.5 1.8-13.3 2.2-26.1-8.3-37.8-58.7-65.1-116.6-131.2-174.8-196.9l-3.7-4.2c-1.8-2.2-4.6-4.4-2.1-7.5 2.8-3.4 4.4 1.2 6.7 2 8.8 8.7 20 11.5 30.5 15.5 14.6 5.7 15.5 7.1 15.7 24.2 0 5.9 0.2 11.3 3.6 16.1 7.5-0.8 14.1-4.8 21-7.2q0.5-0.2 1-0.5 0.5-0.3 0.9-0.6 0.4-0.4 0.8-0.8 0.4-0.5 0.7-0.9c3-5.3 0.7-30.9-3.6-35.7-16-18.3-32.3-36.5-48.5-54.8-3.9-4.4-8.5-5.4-13.7-5.4-26.8 0.2-53.5-0.2-80.2 0.2-10 0.2-17.5-3.7-24.5-11.5-21-23.6-12.3-21.2-39.7-10.9-29.8 11.1-59.8 21.4-89 34.3-1.5 5.2 2 8 4.4 11.2q4.3 5.6 8.7 11.1 4.3 5.4 8.9 10.8 4.5 5.3 9.2 10.5 4.7 5.2 9.5 10.3c6.4 6.8 10.5 14.1 9.8 24.6 0 3.6 0.3 7.4 3.4 9.8z"/>
	<path class="s2" d="m256 405.5c1.8-13.5-3-23-11.4-32.8-44.4-51.8-89.5-102.8-134.6-153.6-4-4.4-5-9-5.4-15.1-0.5-8 2.9-16.7-2.3-24.2 2.5 13.9 1.1 28 1.1 42.2 0 9.2 2.3 16.5 8.3 23.1 45.9 51.2 91.1 102.8 136.8 154.2 2 2.6 3.6 6.4 7.5 6.2z"/>
	<path class="s2" d="m100.9 179.4c2.5-17.7-3.2-31.2-15.4-42.7-14.2-13.5-25.8-30-38.1-45.7-0.7 0.6-2 0.8-2.1 1.6-3.3 14.5-1.1 29.2-1.3 43.9 0 7.5 5.5 11.5 9.8 16.1 12 13.5 23.9 27.2 35.9 40.5 2 2.2 3.3 5.5 6.6 6 3.5-6-3.3-15 4.6-19.7z"/>
	<path class="s2" d="m375.4 415.2c3-20.8-3.9-36.1-18-49.8-14.6-14.5-27.4-31.2-40.6-47.5-11.2-13.7-25.7-19.8-41.4-23.2 20.5 23.4 40.9 46.7 61.4 70.1 5 5.8 10.1 11.3 11.2 20 0.5 4 3.6 6 5.9 8.4 7.3 7.1 12.8 16.5 21.5 22z"/>
	<path class="s2" d="m316.6 419.6c2.9-20.7-3.9-36.9-18.2-50.2q-3.8-3.7-7.5-7.5-3.7-3.9-7.3-7.9-3.5-4-6.9-8.2-3.4-4.1-6.6-8.4c-11.5-15.1-26.4-20.8-42.5-24.8 14.8 16.9 29.4 33.9 44.2 50.8 4.7 5.2 9.1 10.5 10.4 18.3 0.2 0.6 0 1.6 0.3 2 11.1 12.1 20.4 26.6 34.1 35.9z"/>
	<path class="s2" d="m429.5 387.4c-5.4 0-6.5-4-5.9-8.9 2-15.5-4.3-26.6-14.1-36.9-11.6-11.9-23.2-24.2-33.2-37.7-13.1-17.7-30.3-26-49-31.8 25.2 28.6 50.3 57.4 75.5 86 4.8 5.4 9.1 10.9 10.7 18.9 1.7 8.6 9 12.6 16 10.4z"/>
	<path class="s3" d="m322 185.1c0-7.7-0.2-15.5 0-23.2 0.1-9.7-3.6-15.7-11.8-18.7-12.7-4.5-25.3-9.5-38-14.1 16.2 19.3 32.4 38.2 49.8 56z"/>
</svg>