<svg version="1.2" xmlns="http://www.w3.org/2000/svg" viewBox="0 0 500 500" width="500" height="500">
	<title>scissors-svg</title>
	<style>
		.s0 { fill: #302e2f } 
		.s1 { fill: #fefefe } 
		.s2 { fill: #efefef } 
	</style>
	<path class="s0" d="m405.3 355.4c-1.8-10.5-10-16.5-16.9-23.5-2.5-2.4-4.9-5.1-7.2-7.8-2.4-9.6-10.5-14.7-17-21.1-4.7-4.7-7.5-8.8-5.8-16.2 1.4-6.6-2.4-13.9-1.3-20.8 0.4-1.8-1.6-5.2 2.7-4.7 15.8 5 31.7 9.3 47.1 15.2 19.3 7.3 35.9-1.1 51.7-8.9 12.1-6 11.2-45.7 0-53.6-2.9-2-6.5-3-10-4.2-27.9-9.3-56-18.5-84.1-27.4-5.6-1.8-8.9-4.1-8-10.5 2.4-15.5-4-27-15.8-37.4-13.8-12.1-26.3-25.2-39.1-38.2-6.7-6.8-14.5-10.1-24.1-10-16 0.4-32.1-0.2-48 0.2-7.5 0.2-13.3-1.8-18.3-7.3-10.4-10.9-21.4-21-31.9-31.5q-2.1-2.2-4.6-3.9-2.5-1.7-5.4-2.9-2.8-1.1-5.8-1.7-3-0.5-6-0.4c-50.2 0.7-36.4-5.5-71.6 28.5-12.5 12.1-24.5 24.5-37.2 36.3-8.3 7.6-12 16.5-11.4 27.7q0.2 2.7 0.2 5.3 0.1 2.7 0.1 5.4 0 2.6-0.1 5.3 0 2.7-0.2 5.3c-0.5 9.6 2.2 18.2 8.7 25.3 0.9 4.6 4 7.8 7.3 11 11.2 11 22.5 22.2 33.9 33.3 5.2 5 8.3 10.6 8 18-0.4 10.1 4 18.5 11 25.4q45.7 45.1 91.6 89.8c9.8 9.5 20.6 12.1 33.9 7.5 16.5-5.9 33.1-10.7 49.6-16.4 6.6-2.3 11.3-1 16.2 3.8 14.3 14.4 29.2 28.2 43.3 42.8 11.1 11.4 23.4 15 38.4 8.7 4.7-2 9.8-3 14.5-5.1 10.9-5 13.8-10.5 12.2-22.3-0.8-6.5 0.7-12.7-0.6-19z"/>
	<path class="s1" d="m367.4 389.4c6.9-2.1 13.8-4.1 20.7-6.2q0.9-0.2 1.7-0.6 0.8-0.4 1.5-1 0.7-0.5 1.3-1.2 0.5-0.7 0.9-1.5c3.5-7.8-0.5-26.9-6.9-33.1l-101.8-100-3.3-3.2c-3.6-3.9-9.1-7.4-5.4-13.5 3.8-6 10-4.3 15.4-2.3 39.5 12.8 79 25.1 118.2 38.8 16 5.5 28.1-2.5 41.5-6.8 5.4-1.8 4.7-33.6-0.2-36.6-2-1.3-4.5-1.6-6.9-2.3q-83.5-27.5-167.1-54.8c-15.3-5-21-15.7-16.5-30.8 0.5-1.8 1.2-3.4 3.4-3.2 2.2 0.2 2.9 1.8 2.9 3.7v2.7c0.7 18.1 0.7 18.1 18.5 23.8 19.6 6.4 39.3 12.8 58.9 19 3.6-16.5 0-29.1-13.2-40.2-13.4-11-25.2-24-37.4-36.2-4.7-4.8-10-6.8-16.8-6.8-26.8 0.2-53.9 0.2-80.7 0-3.1 0-8 1.4-8-3.2 0-4.6 4.9-3 8-3.4 2.9-0.2 5.8 0 10.2 0-13.4-13.3-25.8-25.8-38.3-38-2.3-2.3-5.8-3.2-9.2-3.2h-32.6q-1.6-0.1-3.2 0.2-1.6 0.4-3 1-1.5 0.6-2.8 1.5-1.3 0.9-2.5 2c-9.7 9.6-19.4 19.4-29.1 29.2-1.5 5.8 3.2 8.5 6.5 11.7q35.6 35.2 71.6 70.4c60.5 59.4 120.9 119 181.8 178 10 9.6 16.1 19.6 14.1 33.5q-0.1 1-0.1 2-0.1 1 0 2 0.1 1 0.2 2 0.2 1 0.5 2c1.2 3.4 2.7 6.4 7.2 4.6z"/>
	<path class="s2" d="m367.4 389.4c-4.9-1.2-4.5-5.3-4-8.6 2.9-18.3-5.6-30.5-18.6-43.2-84.1-81.4-167.5-163.8-251.1-245.8-2.7-2.6-5.2-5.6-7.8-8.5-10.7 10.3-21.4 20.6-32.2 31q-0.3 0.2-0.5 0.4-0.3 0.2-0.5 0.5-0.2 0.2-0.5 0.5-0.2 0.3-0.4 0.6c-4.3 5.8-5.2 45-0.1 50.1 16.3 16.4 33.1 32.4 50 48.6 1.8-3.8 0.7-7.3 1.1-10.7 0.3-2.7-0.2-6 3.8-5.7 3.2 0.2 2.9 3.2 2.9 5.5 0 11.6 0.1 23.1 0 34.7q-0.2 2 0.2 3.9 0.3 2 1 3.9 0.8 1.8 1.9 3.4 1.2 1.7 2.7 3 47.8 46.7 95.3 93.6c1.7 1.6 3.1 3.9 6 3.5 3.5-3 3.7-7.1 3.8-11.4 0-12.6 0.2-25.2 0-37.8-0.1-8.2 2-14.5 10.9-17.1q1-0.3 1.9-0.7 0.9-0.5 1.7-1.1 0.8-0.7 1.4-1.5 0.6-0.8 1-1.7c-0.5-5.5 1.5-6.8 6-3.4q0.6 0.5 1.2 1 0.6 0.5 1.1 1.1 0.6 0.5 1.2 1.1 0.5 0.5 1 1.1 53.6 52.5 107.4 105.1c2.8 3.4 6.1 8.3 12.2 4.6z"/>
	<path class="s1" d="m236.9 278.8c-17.4 3-20.3 6.4-20.5 23.8v47.5c1.7 1.1 3.5 0.7 5.3 0.2 2.5-0.7 5.3-1.5 7.8-2.3 19-6.3 38.1-12.7 57.3-18.9-9.1-13.5-9.8-13.9-24.3-9.1l-18 5.9c-2.7 0.9-6.3 3.2-7.6-1.1-1.1-3.9 3.3-4.1 6-5 8.5-2.8 17-5.7 25.8-8.5-10.9-11.2-21.4-21.9-31.8-32.5z"/>
	<path class="s1" d="m279.5 234c6.9 6 13.1 11.2 18.9 16.5 2 2 4 2.2 6.5 1.6 1.4-0.3 3.8-0.1 3.6 1.5-0.9 13.1 12.4 16.1 18.2 24.5 2.1 3.2 5.4 5.5 8.1 8.2 4 3.7 7.4 1.8 9.6-2 3.5-5.7 0-27-4.7-31.9-2.3-2.3-4.3-4.8-7.8-5.8-14.5-4.7-29-9.5-43.7-14.1-1.6-0.7-3.8-1.6-8.7 1.5z"/>
</svg>